<?xml version="1.0" standalone="no"?>
<!DOCTYPE svg PUBLIC "-//W3C//DTD SVG 20010904//EN"
 "http://www.w3.org/TR/2001/REC-SVG-20010904/DTD/svg10.dtd">
<svg version="1.0" xmlns="http://www.w3.org/2000/svg"
 width="1600.000000pt" height="572.000000pt" viewBox="0 0 1600.000000 572.000000"
 preserveAspectRatio="xMidYMid meet">

<g transform="translate(0.000000,572.000000) scale(0.100000,-0.100000)"
fill="#000000" stroke="none">
<path d="M1234 4782 c-157 -55 -418 -281 -543 -472 -186 -283 -267 -582 -216
-799 36 -150 149 -303 286 -383 76 -45 161 -67 184 -48 26 22 17 70 -29 149
-59 100 -84 180 -96 301 -27 261 56 584 212 820 46 71 157 190 176 190 6 0 14
-10 17 -23 4 -13 2 -576 -4 -1253 -11 -1333 -10 -1316 -68 -1509 -15 -49 -27
-112 -27 -140 -1 -49 -1 -50 32 -53 73 -7 217 91 296 201 84 119 131 244 162
428 15 93 18 226 21 1279 4 1140 3 1176 -15 1205 -35 57 -201 125 -302 125
-19 -1 -58 -9 -86 -18z"/>
<path d="M5405 4791 c-12 -5 -27 -16 -34 -25 -15 -17 -26 -152 -37 -426 l-6
-145 -206 8 -207 8 -21 -27 c-31 -38 -54 -117 -54 -183 0 -92 -8 -89 249 -97
l224 -7 -7 -484 -6 -483 -26 -83 c-45 -142 -122 -275 -227 -391 l-54 -60 1
105 c1 118 -14 177 -70 270 -51 85 -138 166 -355 330 -110 82 -199 152 -199
154 0 2 23 34 50 70 28 37 72 110 98 163 45 93 47 101 47 184 0 78 -2 89 -25
113 -38 41 -84 57 -169 56 -150 0 -269 -72 -355 -215 -44 -73 -71 -187 -62
-259 8 -55 41 -131 82 -184 l24 -32 -71 -133 c-84 -156 -197 -354 -282 -490
-142 -230 -230 -296 -275 -206 -35 72 -39 362 -16 1065 l7 191 -27 46 c-29 50
-74 84 -186 142 -68 35 -82 39 -150 39 -99 0 -168 -33 -260 -124 -126 -126
-226 -313 -351 -659 l-74 -204 -3 451 -2 451 -25 16 c-46 30 -159 65 -226 71
-116 10 -105 90 -113 -803 -4 -472 -3 -802 3 -854 14 -125 38 -182 88 -215 56
-37 232 -41 273 -6 15 12 23 42 35 126 31 213 133 584 226 817 55 138 146 317
216 423 73 111 157 204 171 190 7 -7 7 -77 2 -205 -26 -571 -30 -730 -20 -871
25 -369 99 -500 285 -500 140 0 294 115 459 341 26 36 140 219 252 408 113
188 208 342 212 342 12 0 238 -213 284 -268 142 -167 168 -365 62 -482 -82
-91 -191 -79 -354 40 -77 56 -109 66 -149 46 -66 -35 -141 -156 -141 -232 0
-32 6 -46 33 -71 42 -42 121 -77 232 -105 132 -33 366 -33 479 0 259 75 443
249 607 572 l53 105 13 -95 c38 -282 146 -486 296 -560 117 -57 227 -58 329
-3 98 53 242 235 303 383 28 67 31 67 50 3 27 -92 94 -211 158 -280 105 -112
258 -166 403 -143 176 28 335 141 440 311 l38 61 11 -50 c28 -124 119 -237
232 -290 51 -24 70 -27 158 -27 88 0 107 3 158 27 73 34 152 114 201 201 l38
68 35 -58 c185 -310 572 -331 833 -46 33 36 60 70 60 74 0 5 5 9 10 9 6 0 10
-36 10 -89 l0 -88 -239 -221 c-325 -301 -436 -425 -506 -567 -64 -130 -81
-251 -49 -370 42 -164 182 -280 383 -321 151 -30 294 -1 426 87 187 125 278
305 332 657 14 87 16 174 15 460 l-2 354 78 97 c243 301 431 625 583 1001 l67
165 148 0 149 0 -1 -25 c-1 -14 -10 -70 -22 -125 -55 -259 -71 -586 -37 -770
44 -243 146 -400 313 -483 73 -35 81 -37 176 -37 95 0 104 2 162 33 73 40 140
106 187 185 l35 57 17 -27 c111 -174 243 -255 414 -256 195 -1 408 129 511
311 19 34 38 62 41 62 4 0 9 -17 13 -38 3 -21 22 -70 41 -109 58 -116 157
-192 285 -219 86 -18 171 -6 236 31 58 34 133 120 171 196 19 37 33 56 33 44
0 -11 5 -60 10 -110 8 -78 13 -93 35 -112 54 -47 206 -70 328 -50 75 13 79 23
88 265 14 354 30 470 96 696 66 228 169 460 202 454 14 -3 17 -27 23 -163 15
-363 50 -701 89 -868 40 -168 126 -247 271 -247 56 0 125 25 138 51 6 10 10
53 10 96 0 166 57 510 121 725 36 121 143 396 165 424 13 17 14 0 9 -176 -7
-216 7 -561 30 -715 30 -197 86 -328 183 -428 115 -118 300 -154 435 -85 104
53 189 196 233 389 40 177 25 279 -41 279 -37 0 -57 -35 -92 -167 -58 -215
-103 -283 -185 -283 -169 0 -226 306 -200 1076 9 252 9 360 1 381 -14 37 -53
78 -105 108 -54 32 -213 85 -253 85 -50 0 -98 -25 -125 -67 -74 -112 -263
-713 -291 -923 -10 -79 -21 -91 -28 -34 -11 85 -27 370 -36 604 -8 256 -16
285 -92 340 -90 65 -244 98 -306 67 -63 -33 -123 -164 -254 -552 l-74 -220 -5
345 c-3 190 -9 351 -13 358 -15 22 -60 39 -159 61 -120 26 -149 26 -179 2
l-24 -19 -8 -594 c-7 -584 -8 -594 -31 -678 -43 -149 -112 -278 -179 -331 -16
-12 -47 -24 -70 -26 -81 -8 -132 50 -164 186 -20 85 -28 671 -15 1056 7 196 6
277 -2 295 -22 50 -161 100 -276 100 -44 0 -56 -5 -81 -29 -24 -24 -29 -38
-29 -77 l0 -47 -35 45 c-94 124 -255 189 -415 167 -265 -37 -480 -340 -547
-771 -22 -143 -24 -435 -4 -563 17 -102 16 -110 -10 -181 -66 -177 -199 -236
-296 -132 -30 32 -69 119 -90 203 -14 56 -17 113 -17 285 -1 235 2 258 75 592
45 205 46 250 6 309 -51 74 -128 97 -255 75 -224 -41 -367 -66 -373 -66 -3 0
-2 25 4 55 27 161 -50 254 -202 243 -113 -8 -177 -56 -230 -168 -21 -45 -25
-70 -26 -140 0 -75 3 -90 27 -132 16 -25 42 -58 59 -71 l32 -25 -32 -108 c-75
-254 -187 -493 -355 -753 l-61 -95 -7 45 c-5 24 -4 312 1 639 6 369 6 601 0
612 -14 25 -58 46 -146 69 -91 23 -154 24 -192 4 -34 -17 -41 -32 -41 -93 l0
-46 -50 56 c-112 125 -251 179 -409 157 -206 -29 -372 -206 -480 -512 -71
-201 -104 -498 -81 -730 17 -169 17 -166 -14 -250 -63 -171 -168 -245 -264
-187 -42 26 -78 103 -99 208 -21 111 -27 531 -14 946 13 392 15 378 -59 416
-52 27 -153 50 -218 50 -74 0 -102 -28 -102 -102 l0 -52 -50 56 c-99 111 -208
161 -350 160 -168 -2 -298 -82 -419 -261 -125 -184 -188 -415 -210 -771 -7
-110 -15 -162 -34 -215 -100 -289 -287 -467 -386 -367 -35 35 -67 119 -86 229
-23 131 -16 931 11 1341 l6 92 241 1 c133 1 253 4 267 8 45 12 92 140 76 206
-4 14 -17 30 -31 35 -13 5 -140 16 -281 24 -140 8 -258 17 -261 20 -4 3 -2
113 4 243 11 272 12 271 -65 305 -101 43 -269 76 -307 59z m1680 -1270 c127
-57 185 -228 185 -543 1 -424 -106 -728 -283 -808 -54 -25 -91 -25 -143 1
-138 66 -214 364 -185 726 27 347 104 544 240 615 63 33 127 36 186 9z m1836
-15 c110 -73 163 -320 139 -652 -25 -359 -124 -604 -272 -678 -62 -31 -105
-33 -158 -6 -117 60 -182 266 -182 575 0 425 107 713 289 781 54 20 136 11
184 -20z m3069 24 c86 -24 150 -119 187 -275 28 -123 25 -490 -5 -632 -41
-190 -96 -313 -174 -392 -77 -78 -154 -99 -227 -61 -126 64 -185 255 -184 595
1 368 61 598 186 711 67 60 135 77 217 54z m-2883 -2032 c-16 -575 -111 -798
-340 -798 -82 0 -137 33 -172 104 -67 133 -2 332 185 574 64 83 315 352 328
352 3 0 2 -105 -1 -232z"/>
</g>
</svg>
